<svg xmlns="http://www.w3.org/2000/svg" width="110" height="110">
    <path fill="#306E51" fill-rule="evenodd" d="M54.997 109.998c-30.376 0-55-24.625-55-55.001C-.003 25.138 23.797.853 53.46.036c.512-.012 1.022-.039 1.537-.039.49 0 .975.025 1.461.037 29.699.776 53.539 25.079 53.539 54.963 0 30.376-24.622 55.001-55 55.001zm0-104.909c-27.517 0-49.905 22.388-49.905 49.908 0 27.519 22.388 49.909 49.905 49.909 27.519 0 49.906-22.39 49.906-49.909 0-27.52-22.387-49.908-49.906-49.908zm36.057 51.863l-.487 4.484 4.621.571-.243 2.206-10.746-1.326.241-2.208 4.465.552.488-4.484-4.464-.55.241-2.206 10.746 1.326-.24 2.206-4.622-.571zm1.264-5.29c-1.01.2-1.9.006-2.662-.59-.765-.595-1.276-1.518-1.537-2.769l-.407-1.981-3.838.765-.451-2.181L94.002 42.8l.861 4.161c.261 1.25.157 2.296-.319 3.137-.469.841-1.213 1.361-2.226 1.564zm.913-4.374l-.412-1.981-3.472.69.407 1.979c.128.611.383 1.037.772 1.289.383.248.826.323 1.33.223.508-.1.895-.338 1.159-.718.274-.375.342-.87.216-1.482zm-13.028-8.753l3.192-7.943-.032-.031-5.84 4.323-1.318-1.797 8.664-6.421 1.32 1.799L83 36.404l.036.033 5.831-4.318 1.317 1.799-8.665 6.415-1.316-1.798zm2.103-18.455c-.325.089-.617.033-.881-.159-.207-.156-.407-.412-.598-.769-.195-.357-.367-.594-.518-.705-.102-.078-.218-.088-.359-.034-.132.053-.25.149-.347.286l-.555-.69c.198-.276.459-.464.786-.559.321-.098.616-.048.875.146.166.123.359.37.573.739.219.37.4.612.556.726.097.074.22.078.367.021.145-.06.269-.158.369-.299l.52.747c-.2.284-.463.465-.788.55zm-1.281.199l.797 2.695-.04.029-1.537-1.14-.371-1.539-1.567.104-1.542-1.146.016-.043 2.788-.039 1.456 1.079zm-.15 4.852l-3.916-2.902-1.59 2.203 3.301 2.449-.974 1.353-3.304-2.447-1.81 2.504 3.928 2.91-.975 1.349-5.715-4.236 6.331-8.765 5.703 4.228-.979 1.354zm-14.664 1.575l4.383-9.917 2.016.928-4.387 9.918-2.012-.929zm-3.487-1.4l1.008-7.364-.044-.017-3.698 6.967-1.482-.221-1.683-7.796-.044.002-1.01 7.38-2.18-.331 1.47-10.788 2.865.43 1.681 8.371.044.008 3.882-7.529 2.844.43-1.466 10.789-2.187-.331zM46.068 23.31l-3.344 1.187.1 2.468-2.066.733.016.024-1.808 1.363c-.256-.006-.519-.139-.787-.403-.267-.262-.506-.53-.709-.808l-.467-.621c-.325-.437-.7-.687-1.119-.75-.418-.061-.847.071-1.282.401l-1.393 1.054 2.615 3.501-1.754 1.327-6.548-8.766 3.028-2.286c.998-.753 1.949-1.113 2.85-1.084.903.03 1.659.454 2.269 1.266.335.451.505.931.513 1.437.002.506-.144 1.034-.451 1.578.628-.238 1.192-.262 1.683-.076.493.184.937.541 1.33 1.068l.482.643c.18.244.403.477.672.692.258.211.509.317.76.332l-.213-11.392 2.121-.751 7.165 9.068-2.162.766-1.501-1.971zm-12.095.01c-.302-.401-.662-.626-1.078-.682-.42-.052-.863.097-1.335.453l-1.271.96 1.907 2.552 1.242-.94c.493-.372.783-.753.867-1.143.084-.391-.028-.791-.332-1.2zm8.567-4.672l-.044.014.156 4.036 2.331-.829-2.443-3.221zm-.795-4.466l.166.461-1.548.548-.459-.927c.342-.139.577-.27.702-.393.122-.123.146-.254.072-.387l-.014-.041c-.035-.173-.156-.268-.357-.276-.201-.012-.458.039-.777.151l-.288-.957c.872-.312 1.589-.426 2.138-.346.554.082.905.336 1.061.765.106.303.09.576-.05.817-.144.239-.361.436-.646.585zm-9.958 21.485l-1.306 1.773-7.356-5.567-1.835 2.489-1.347-1.017 5.01-6.791 1.346 1.019-1.866 2.526 7.354 5.568zm-5.464 10.618l-10.245-3.618.704-2.098 10.245 3.616-.704 2.1zm-7.016.622l1.939.201c1.325.137 2.378.679 3.163 1.619.786.943 1.117 2.099.993 3.467-.121 1.365-.65 2.427-1.591 3.186-.937.759-2.068 1.069-3.388.936l-1.938-.201c-1.318-.137-2.371-.673-3.16-1.608-.788-.936-1.125-2.084-1.002-3.441.122-1.367.655-2.44 1.596-3.209.941-.768 2.071-1.083 3.388-.95zm-3.3 4.333c-.064.747.151 1.357.653 1.829.501.474 1.171.752 2.006.838l1.953.202c.853.09 1.567-.049 2.143-.413.576-.364.895-.923.963-1.674.068-.757-.151-1.377-.65-1.857-.498-.48-1.174-.763-2.028-.851l-1.952-.202c-.837-.086-1.545.057-2.122.429-.574.377-.895.942-.966 1.699zm-3.49-.346l1.025 1.322-.175 1.932-.045.019-1.672-2.415.169-1.892 2.068-2.02.042.027-.174 1.934-1.238 1.093zm-.507-2.583c.012-.315-.004-.544-.053-.681-.046-.141-.132-.209-.258-.199l-.044-.004c-.145-.036-.26.021-.342.17-.076.15-.132.368-.158.655l-.817-.137c.072-.786.233-1.379.484-1.773.25-.395.568-.573.947-.532.271.027.473.14.606.34.132.198.21.436.216.706l.409.043-.126 1.402-.864.01zm6.782 10.591l1.741-.387c1.29-.286 2.446-.089 3.459.59 1.015.676 1.671 1.678 1.976 3.002l.866 3.78-4.72 1.042.233 1.013-1.31.287-.235-1.012-4.502.997-.866-3.78c-.305-1.323-.14-2.505.485-3.546.626-1.038 1.581-1.701 2.873-1.986zm-1.731 5.172l.369 1.609 2.878-.639-.413-1.807 1.31-.288.415 1.809 3.096-.686-.369-1.607c-.161-.714-.554-1.231-1.176-1.553-.617-.323-1.328-.395-2.14-.217l-1.758.389c-.802.18-1.414.545-1.831 1.095-.42.55-.542 1.181-.381 1.895zM54.997 95.15c14.307 0 26.785-7.937 33.303-19.625l.925.438C82.54 87.997 69.712 96.167 54.997 96.167c-15.852 0-29.501-9.49-35.646-23.074l1.032-.2c6.034 13.11 19.262 22.257 34.614 22.257zm0-15.708c-10.506 0-19.436-6.639-22.893-15.939-.439-1.184-.814-2.399-1.067-3.661-.315-1.566-.483-3.187-.483-4.845 0-13.501 10.944-24.444 24.443-24.444 8.542 0 16.048 4.388 20.419 11.025 2.504 3.803 3.976 8.34 4.017 13.225 0 .066.008.129.008.194 0 2.462-.372 4.835-1.048 7.078-.248.822-.533 1.631-.864 2.415-3.707 8.786-12.401 14.952-22.532 14.952zM36.2 68.474l4.584-1.672.163.191c.1.108.193.224.307.339.12.109.244.222.371.34.258.236.535.49.836.761.151.13.297.279.467.408l.534.384c.365.258.751.533 1.154.817.421.25.878.489 1.34.743.23.125.461.26.708.377.253.102.512.204.768.311l.789.313c.262.11.534.211.818.272l1.727.456c.616.098 1.25.181 1.888.263l.474.059.433.002.865.002h.96l.941-.088c.626-.039 1.248-.197 1.866-.297 1.219-.293 2.427-.655 3.535-1.185 1.123-.485 2.142-1.136 3.087-1.793.914-.704 1.761-1.424 2.457-2.208.178-.188.349-.381.524-.567l.459-.589c.315-.377.576-.774.823-1.151.258-.37.465-.751.662-1.111.102-.178.198-.352.286-.524.083-.176.161-.346.237-.514.321-.654.52-1.26.701-1.748.172-.489.246-.89.328-1.154.072-.268.113-.409.113-.409s-.057.135-.161.393c-.11.251-.233.645-.461 1.105-.229.46-.488 1.023-.875 1.623l-.283.471c-.112.154-.222.313-.341.472-.227.328-.467.668-.758.993-.279.33-.566.68-.905 1.001-.164.164-.331.331-.497.506-.183.155-.369.315-.552.474-.736.655-1.605 1.231-2.512 1.775-.936.501-1.921.982-2.98 1.297-1.044.36-2.145.553-3.238.684-.552.023-1.098.102-1.649.067l-.815-.018c-.264-.031-.527-.061-.788-.096-.291-.033-.576-.07-.861-.105l-.429-.051-.365-.1c-.481-.127-.957-.252-1.424-.377l-1.379-.54c-.228-.076-.441-.186-.643-.307-.207-.111-.414-.221-.612-.33l-.592-.321c-.187-.116-.363-.254-.538-.372-.347-.252-.688-.481-1.003-.716-.291-.267-.569-.522-.836-.76-.133-.122-.261-.237-.39-.35-.12-.118-.218-.252-.325-.37l-.234-.268 4.226-1.539-10.591-8.879-2.394 13.61zm26.954-10.251v-1.615H61.98v-6.53h-2.108l-4.313 6.897.098 1.248h4.237v2.257h2.086v-2.257h1.174zM52.452 60.48V49.928l-4.231.371v1.594h2.15v8.587h2.081zm17.396-17.552c-.044-.05-.087-.098-.131-.152-.093-.107-.192-.22-.298-.337-.115-.104-.237-.214-.362-.333-.253-.227-.525-.475-.816-.739-.146-.133-.299-.268-.452-.407-.168-.123-.342-.246-.523-.379-.357-.251-.734-.519-1.125-.796-.398-.27-.857-.485-1.302-.741l-.69-.374c-.231-.125-.496-.209-.744-.316-.51-.196-1.024-.421-1.565-.601-.476-.127-.963-.252-1.457-.383-.076-.021-.15-.039-.228-.059-.275-.084-.588-.123-.897-.164-.305-.043-.616-.084-.927-.127-.305-.033-.634-.088-.925-.102-.281 0-.561 0-.844-.002-.287 0-.572 0-.859-.002l-.213-.002h-.186l-.116.012-.462.041c-.305.033-.611.055-.915.094l-.91.162c-.608.086-1.198.29-1.788.43-.573.21-1.159.368-1.703.626-.272.121-.543.239-.818.358-.263.131-.52.276-.778.413-.023.01-.039.023-.06.033-.5.254-.956.575-1.411.86-.463.325-.902.656-1.32.999-.137.12-.255.241-.389.356-.269.233-.544.458-.775.712-.36.362-.708.716-1.001 1.095-.154.184-.306.362-.451.542-.136.184-.264.371-.397.55-.127.181-.249.356-.373.528l-.321.528c-.211.342-.406.67-.554.993-.339.626-.57 1.206-.758 1.676-.199.471-.289.856-.381 1.112-.085.258-.127.395-.127.395l.173-.377c.12-.241.256-.62.505-1.054.241-.444.532-.974.933-1.549.181-.295.405-.586.65-.892.117-.154.239-.311.365-.471.137-.152.279-.305.422-.463l.433-.481c.162-.151.325-.305.49-.462.322-.323.69-.616 1.064-.917.364-.319.791-.571 1.2-.866.191-.121.402-.235.604-.352.239-.141.469-.288.72-.421.469-.222.929-.477 1.433-.653.25-.097.495-.201.746-.291l.768-.235c.511-.17 1.055-.248 1.577-.375.543-.059 1.071-.182 1.617-.19l.806-.047c.267-.004.536.01.805.016l.399.009h.05l.026.003.054.007.211.024c.284.037.568.07.851.103l.842.106c.273.041.489.123.732.182l.704.184c.229.057.458.109.69.215.46.18.907.356 1.349.532.425.201.822.44 1.217.647.195.112.397.195.574.323.176.125.347.25.52.371.334.252.681.456.97.714.287.258.556.508.821.745.126.116.255.234.379.342.106.125.208.249.311.366l.096.108c.032.038.064.076.098.113l-4.238 1.55 10.594 8.875.804-4.58 1.587-9.034-4.6 1.676zM59.637 53.286l.215-.464.042.008v3.778h-2.442l2.185-3.322zm23.551 22.313c.415-.63.814-1.276 1.188-1.932l.889.419.96.454c-6.146 10.921-17.832 18.322-31.228 18.322-14.235 0-26.52-8.365-32.295-20.421l.967-.189 1.097-.213c.413.827.869 1.63 1.344 2.418 5.515 9.119 15.188 15.453 26.393 16.276.825.06 1.656.092 2.494.092.795 0 1.579-.028 2.361-.084 4.331-.3 8.432-1.436 12.163-3.227-1.246.634-2.536 1.191-3.862 1.666 3.746-1.173 7.226-2.943 10.333-5.205 2.867-2.349 5.357-5.147 7.345-8.294l-.149-.082zm.267-11.189l10.187 3.776-.736 2.085-10.189-3.776.738-2.085zm12.542 6.293l-.819 2.323-.048-.002-1.119-2.651.625-1.78 1.361 2.11z"/>
</svg>
